Coordinates
version=1
nRows=9
nColumns=24
inDegrees=yes

Units are S.I. units (second, meters, Newtons, ...)
Angles are in degrees.

endheader
time	pelvis_tilt	pelvis_list	pelvis_rotation	pelvis_tx	pelvis_ty	pelvis_tz	hip_flexion_r	hip_adduction_r	hip_rotation_r	knee_angle_r	ankle_angle_r	subtalar_angle_r	mtp_angle_r	hip_flexion_l	hip_adduction_l	hip_rotation_l	knee_angle_l	ankle_angle_l	subtalar_angle_l	mtp_angle_l	lumbar_extension	lumbar_bending	lumbar_rotation
      1.14416667	     -2.57717461	      2.24737579	     -4.05975716	      0.12931435	      1.05912392	      0.26451396	     17.75741817	     -5.98114929	     -5.59217637	    -71.33703013	      2.77929584	     -0.17910857	      5.39158717	     19.48566051	      2.95602323	      2.25285519	    -26.34120418	     13.77572030	      2.86874923	     -0.40563440	     -8.67418760	     -3.55171061	      0.18948598
      1.14833333	     -2.56618565	      2.10467842	     -4.10376651	      0.13494867	      1.06076283	      0.26456261	     18.26868348	     -5.73982257	     -5.71281392	    -70.97923154	      3.11795771	      0.12750429	      5.36009608	     18.89213068	      2.80186574	      2.23814261	    -25.89198710	     13.94095560	      2.98087470	     -0.39213047	     -8.66715825	     -3.39257231	      0.14865900
      1.15250000	     -2.57052711	      1.93740623	     -4.14826483	      0.14056251	      1.06235107	      0.26463578	     18.77821608	     -5.45822162	     -5.83234542	    -70.54808600	      3.45513677	      0.40514915	      5.34676509	     18.31767177	      2.61807197	      2.22179037	    -25.44925029	     14.07897833	      3.05349925	     -0.38234986	     -8.65600410	     -3.19789263	      0.12193124
      1.15666667	     -2.56562373	      1.78243773	     -4.18378011	      0.14619078	      1.06394624	      0.26469372	     19.25872102	     -5.19481493	     -5.96389554	    -70.04969266	      3.79018485	      0.71515860	      5.33952026	     17.72375585	      2.45101106	      2.20853456	    -24.98147686	     14.21124928	      3.13568048	     -0.37239614	     -8.64736267	     -3.01658120	      0.08762139
      1.16083333	     -2.56046981	      1.63380588	     -4.21235521	      0.15181067	      1.06549551	      0.26474756	     19.72510482	     -4.94007316	     -6.10283040	    -69.49440393	      4.12487851	      1.04203642	      5.33687911	     17.12853381	      2.29257796	      2.20090840	    -24.50677098	     14.33773591	      3.21216620	     -0.36209605	     -8.64085647	     -2.84236444	      0.04607645
      1.16500000	     -2.55059413	      1.48286057	     -4.23517670	      0.15742563	      1.06702273	      0.26479877	     20.16726501	     -4.68120897	     -6.24575986	    -68.87368389	      4.45628373	      1.35965082	      5.33986851	     16.52795849	      2.13264095	      2.19005512	    -24.02758548	     14.44620148	      3.27631974	     -0.35328803	     -8.63862642	     -2.65356471	      0.00781476
      1.16916667	     -2.52258875	      1.33628532	     -4.24317019	      0.16303033	      1.06852411	      0.26482714	     20.57338312	     -4.43708909	     -6.40953015	    -68.20108913	      4.78815641	      1.70684165	      5.34382365	     15.90634368	      1.98426599	      2.20232744	    -23.54094693	     14.58053856	      3.35836642	     -0.33861714	     -8.66174353	     -2.48127641	     -0.06356380
      1.17333333	     -2.53311876	      1.17634972	     -4.25414374	      0.16863258	      1.06992825	      0.26488230	     21.00350762	     -4.16291539	     -6.55996209	    -67.46365952	      5.10000645	      2.00128916	      5.35258950	     15.33225831	      1.81442415	      2.20233321	    -23.06518397	     14.66729609	      3.40927773	     -0.32997697	     -8.64241509	     -2.28925775	     -0.10196957
      1.17750000	     -2.53157233	      1.03400717	     -4.25376937	      0.17423369	      1.07128672	      0.26491353	     21.40625812	     -3.91760200	     -6.72155801	    -66.67950763	      5.41811709	      2.31657203	      5.36482825	     14.74511674	      1.66916213	      2.21520934	    -22.58310984	     14.76687135	      3.46169988	     -0.32048994	     -8.63704846	     -2.11492533	     -0.15659033
